

*******************************************************************************
Little Johnny 2011
*******************************************************************************
General Information Type.................: Movie
Video Format.........: AVI
Source...............: DVD 16x9
Original Format......: PAL
Genre................: Comedy
IMDb Rating..........: 7.1
Movie Information....: http://www.imdb.com/title/tt1674086/
Storyline............: Celebrates the wrongest jokes ever told. It's a coming
.....................: of age story that's brimming with irreverent humor,
.....................: larger-than-life characters, and crackling action to
.....................: boot! It will remind you of the great cartoons of
.....................: yesteryear.
Release Notes
General
Complete name : Little_Johnny(2011)DVDRip_XviD\Little_Johnny(2011).avi
Format : AVI
Format/Info : Audio Video Interleave
Format profile : OpenDML
File size : 1.05 GiB
Duration : 1h 18mn
Overall bit rate : 1 920 Kbps
Movie name : BHE3897.Title3.DVDRip
Writing application : Lavf52.78.4
Original source form/Name : BHE3897

Video
ID : 0
Format : MPEG-4 Visual
Format profile : Advanced Simple@L5
Format settings, BVOP : 2
Format settings, QPel : No
Format settings, GMC : No warppoints
Format settings, Matrix : Default (H.263)
Muxing mode : Packed bitstream
Codec ID : DX50
Codec ID/Hint : DivX 5
Duration : 1h 18mn
Bit rate : 1 461 Kbps
Width : 720 pixels
Height : 406 pixels
Display aspect ratio : 16:9
Frame rate : 25.000 fps
Color space : YUV
Chroma subsampling : 4:2:0
Bit depth : 8 bits
Scan type : Progressive
Compression mode : Lossy
Bits/(Pixel*Frame) : 0.200
Stream size : 782 MiB (73%)
Writing library : XviD 1.2.1 (UTC 2008-12-04)

Audio
ID : 1
Format : AC-3
Format/Info : Audio Coding 3
Mode extension : CM (complete main)
Codec ID : 2000
Duration : 1h 18mn
Bit rate mode : Constant
Bit rate : 448 Kbps
Channel(s) : 6 channels
Channel positions : Front: L C R, Side: L R, LFE
Sampling rate : 48.0 KHz
Bit depth : 16 bits
Compression mode : Lossy
Stream size : 240 MiB (22%)
Alignment : Aligned on interleaves
Interleave, duration : 32 ms (0.80 video frame)
Interleave, preload duration : 32 ms



This is the rip as it was delivered to me, unadulterated. I will be cleaning
it up etc soon and resizing for mobile but i am painfully aware that any
modification is loss of information, and this has already been crunched pretty

hard, so here it is as the postie delivered it lol.
VLC complains about a damaged idx, but it plays just fine in the other players
i have thrown at it (VLC too apart from that).
If you are a Kevin Bloody Wilson fan you should know the sort of humour to

expect, with Kev playing......... Uncle Kev.
Pack a bowl or crack a stubbie, settle in and have a laugh.